<svg xmlns="http://www.w3.org/2000/svg" xmlns:xlink="http://www.w3.org/1999/xlink" version="1.1" viewBox="0 0 64 64"><path d="M56.012 11.718a15.83 15.83 0 0 1 5.434 9.49v.024c.029.267.552 5.115.552 10.734 0 5.656-.517 10.422-.551 10.73v.032a15.488 15.488 0 0 1-5.456 9.5c-.057.042-4.045 2.945-8.986 5.849a108.357 108.357 0 0 1-9.487 4.874l-.1.047A13.549 13.549 0 0 1 32 64a13.969 13.969 0 0 1-5.434-1.008l-.051-.022A98.037 98.037 0 0 1 17 58.083a122.369 122.369 0 0 1-8.963-5.832l-.049-.037a15.83 15.83 0 0 1-5.434-9.49V42.7C2.522 42.433 2 37.585 2 31.966c0-5.656.517-10.422.551-10.73v-.032a15.5 15.5 0 0 1 5.439-9.488l.045-.033c.321-.228 4.2-2.966 8.965-5.766a108.357 108.357 0 0 1 9.487-4.874l.1-.047A13.549 13.549 0 0 1 32 0a13.97 13.97 0 0 1 5.434 1.008l.051.022A98.031 98.031 0 0 1 47 5.917a110.508 110.508 0 0 1 8.963 5.764Z" fill="#fdecef"></path><path d="M43.793 23.801h-5.892v-1.054a2.257 2.257 0 0 0-2.255-2.255h-7.292a2.257 2.257 0 0 0-2.255 2.255v1.054h-5.892a2.184 2.184 0 0 0-2.182 2.182v15.341a2.184 2.184 0 0 0 2.182 2.182h23.586a2.184 2.184 0 0 0 2.182-2.182V25.983a2.184 2.184 0 0 0-2.182-2.182Zm-15.789-1.054a.35.35 0 0 1 .35-.35h7.293a.35.35 0 0 1 .35.35v1.054h-7.993Zm-7.8 2.96h23.589a.277.277 0 0 1 .276.276v5a37.251 37.251 0 0 1-12.077 1.741 37.307 37.307 0 0 1-12.062-1.736v-5.005a.277.277 0 0 1 .277-.276Zm23.586 15.9H20.207a.277.277 0 0 1-.276-.276v-8.32a37.866 37.866 0 0 0 10.127 1.588V35.052a1.43 1.43 0 0 0 1.429 1.428h1.031a1.43 1.43 0 0 0 1.429-1.428V34.591a37.8 37.8 0 0 0 10.127-1.593v8.326a.277.277 0 0 1-.281.279Z" fill="#ef3f58"></path></svg>