<svg xmlns="http://www.w3.org/2000/svg" xmlns:xlink="http://www.w3.org/1999/xlink" version="1.1" viewBox="0 0 64 64"><path d="M56.012 11.718a15.83 15.83 0 0 1 5.434 9.49v.024c.029.267.552 5.115.552 10.734 0 5.656-.517 10.422-.551 10.73v.032a15.488 15.488 0 0 1-5.456 9.5c-.057.042-4.045 2.945-8.986 5.849a108.357 108.357 0 0 1-9.487 4.874l-.1.047A13.549 13.549 0 0 1 32 64a13.969 13.969 0 0 1-5.434-1.008l-.051-.022A98.037 98.037 0 0 1 17 58.083a122.369 122.369 0 0 1-8.963-5.832l-.049-.037a15.83 15.83 0 0 1-5.434-9.49V42.7C2.522 42.433 2 37.585 2 31.966c0-5.656.517-10.422.551-10.73v-.032a15.5 15.5 0 0 1 5.439-9.488l.045-.033c.321-.228 4.2-2.966 8.965-5.766a108.357 108.357 0 0 1 9.487-4.874l.1-.047A13.549 13.549 0 0 1 32 0a13.97 13.97 0 0 1 5.434 1.008l.051.022A98.031 98.031 0 0 1 47 5.917a110.508 110.508 0 0 1 8.963 5.764Z" fill="#eaf4fd"></path><path d="M42.107 22.093H21.894a3.423 3.423 0 0 0-3.419 3.419v12.977a3.423 3.423 0 0 0 3.419 3.419h20.213a3.423 3.423 0 0 0 3.419-3.419V25.512a3.423 3.423 0 0 0-3.419-3.419Zm-.532 2.205L32 31.693l-9.572-7.395Zm.534 15.4H21.894a1.215 1.215 0 0 1-1.213-1.213v-12.75l10.646 8.224a1.1 1.1 0 0 0 1.348 0l10.646-8.224v12.754a1.215 1.215 0 0 1-1.214 1.213Z" fill="#1b8aef"></path></svg>