<svg class="icon-svg" xmlns="http://www.w3.org/2000/svg" width="28.867" height="29" viewBox="0 0 28.867 29">
	<g transform="translate(-161 -2725)">
		<g transform="translate(161 2725)">
			<path id="Shape" d="M19.766,9.738a1.614,1.614,0,0,0-1.473-.272,2.216,2.216,0,0,1,.98-.575,1.088,1.088,0,0,1,.493.847ZM21.207,8.1c-.3-1.588-3.986-.536-5.845-1.21-.036.463.572,1.2,1.153,1.479a7.219,7.219,0,0,0-2.065,4.722,7.217,7.217,0,0,0-2.065-4.722c.581-.274,1.189-1.016,1.153-1.479-1.858.674-5.548-.378-5.845,1.21a1.317,1.317,0,0,0,.274,1,.826.826,0,0,1,.709-.533c2.6-.393,4.77,3.614,2.811,5.233a.039.039,0,0,0,.027.07h5.873a.039.039,0,0,0,.027-.07c-1.96-1.62.211-5.626,2.81-5.233a.825.825,0,0,1,.709.533,1.315,1.315,0,0,0,.273-1Zm.632-3.644c-.047-.15,1.477-.154,1.477.8,0,.639-.912.942-.912,1.606a.613.613,0,0,0,.434.536c-.235-1.065.736-.508,1-.309-.521-1.433.652-1.423.536-2.08-.08-.459-1.1-.32-1.469-.553-.655-.412-1.429-2.016-1.94-.412a1.213,1.213,0,0,1-.81,2.184,1.311,1.311,0,0,0,0,.206C21.6,6.363,22.1,5.3,21.84,4.456ZM5.028,7.089c.262-.2,1.233-.757,1,.309a.613.613,0,0,0,.434-.536c0-.663-.912-.966-.912-1.606,0-.954,1.524-.95,1.477-.8-.263.848.239,1.907,1.68,1.978a1.37,1.37,0,0,0,0-.206A1.213,1.213,0,0,1,7.9,4.044c-.511-1.6-1.285,0-1.94.412-.369.232-1.389.094-1.469.553-.115.657,1.057.648.536,2.08ZM9.12,9.738a1.614,1.614,0,0,1,1.473-.272,2.212,2.212,0,0,0-.979-.575,1.088,1.088,0,0,0-.494.847ZM15.136.857,14.433,0l-.7.857.7.9.7-.9Zm4.013,2.591-.5-.609-.5.609.5.6.5-.6ZM23.2,21.053l-.634-.671-.634.671.634.588.634-.588ZM10.718,3.448l-.5-.609-.5.609.5.6.5-.6ZM9.286,6.433H11.15a2.373,2.373,0,0,0,2.486-1.8h1.595a2.373,2.373,0,0,0,2.486,1.8h1.864a4.228,4.228,0,0,0,.408-.662c.295-.788-.082-1.156-.631-1.156l-.71.643-.71-.643c-.549,0-.925.368-.631,1.156a2.307,2.307,0,0,0,.213.379A1.939,1.939,0,0,1,15.83,4.637a10.741,10.741,0,0,0,.612-1.091c.441-1.13-.122-1.592-.945-1.592L14.433,3.2,13.37,1.954c-.823,0-1.386.462-.945,1.592a10.649,10.649,0,0,0,.612,1.091,1.94,1.94,0,0,1-1.692,1.514,2.27,2.27,0,0,0,.213-.379c.294-.788-.081-1.156-.631-1.156l-.71.643-.71-.643c-.549,0-.925.368-.631,1.156a4.218,4.218,0,0,0,.408.662Zm19.275,5.779a9.309,9.309,0,0,1-5.175.805q.042-.194.071-.389a12.257,12.257,0,0,0,4.2-1.039,2.378,2.378,0,0,0,.991-3.054.045.045,0,0,0-.072-.009A9.851,9.851,0,0,1,23.517,11.5q-.011-.226-.041-.451a12.665,12.665,0,0,0,3.453-2.572,2.748,2.748,0,0,0-.043-3.739.045.045,0,0,0-.067.009c-.3.494-3.1,5.021-6.176,6.975l-.113.071a.145.145,0,0,0-.023.236,1.7,1.7,0,0,1,.575,1.265,1.808,1.808,0,0,1-1.545,1.737,3.59,3.59,0,0,1-1.712-.143.042.042,0,0,0-.057.037V17.66a.043.043,0,0,0,.083.013,2.131,2.131,0,0,1,2-1.21,5.227,5.227,0,0,0,.906,2.426A1.55,1.55,0,0,0,23,19.116a.039.039,0,0,0-.011-.06A4.627,4.627,0,0,1,20.79,16.31a3.145,3.145,0,0,0,.367-.151,5.222,5.222,0,0,0,1.869,1.9,1.714,1.714,0,0,0,2.355-.462.04.04,0,0,0-.034-.059,5.013,5.013,0,0,1-3.373-1.946c.094-.086.186-.176.271-.272a7.175,7.175,0,0,0,2.939,1.348c1.016.138,2.167-.186,2.2-1.368a.042.042,0,0,0-.046-.042,8.976,8.976,0,0,1-4.457-.852q.089-.169.165-.344a13.952,13.952,0,0,0,3.8.407,1.971,1.971,0,0,0,1.785-2.228.044.044,0,0,0-.063-.031ZM5.824,14.065q.077.175.166.344a8.973,8.973,0,0,1-4.457.852.043.043,0,0,0-.046.042c.028,1.181,1.179,1.505,2.2,1.367a7.178,7.178,0,0,0,2.939-1.348c.086.1.178.185.271.272A5.014,5.014,0,0,1,3.52,17.54a.04.04,0,0,0-.034.059,1.714,1.714,0,0,0,2.355.462,5.225,5.225,0,0,0,1.869-1.9,3.229,3.229,0,0,0,.367.151,4.627,4.627,0,0,1-2.195,2.747.039.039,0,0,0-.011.06,1.55,1.55,0,0,0,2.241-.228,5.227,5.227,0,0,0,.906-2.426,2.13,2.13,0,0,1,2,1.21.043.043,0,0,0,.083-.013V14.926a.042.042,0,0,0-.057-.037,3.588,3.588,0,0,1-1.711.143A1.808,1.808,0,0,1,7.785,13.3,1.7,1.7,0,0,1,8.36,12.03a.145.145,0,0,0-.022-.236l-.114-.071C5.15,9.771,2.35,5.247,2.049,4.75a.046.046,0,0,0-.068-.01,2.749,2.749,0,0,0-.042,3.738,12.667,12.667,0,0,0,3.452,2.572q-.03.224-.041.451A9.856,9.856,0,0,1,.3,8.527a.045.045,0,0,0-.073.008,2.38,2.38,0,0,0,.991,3.054,12.257,12.257,0,0,0,4.2,1.039q.029.2.071.389a9.31,9.31,0,0,1-5.174-.8.043.043,0,0,0-.063.032,1.97,1.97,0,0,0,1.785,2.227,13.95,13.95,0,0,0,3.795-.407Zm16.746,8.44-.938-.738a1.637,1.637,0,0,0-.756.992c-.564.079-2.1-.263-1.953-.489,1.686-2.372.4-3.784-1.154-3.705v1.593a.963.963,0,0,1-1,.926H15.7a1.729,1.729,0,0,0-1.268.772,1.729,1.729,0,0,0-1.268-.772H12.1a.963.963,0,0,1-1-.926V18.564c-1.55-.078-2.841,1.334-1.154,3.705.148.224-1.433.583-2.175.493a1.1,1.1,0,0,0-.793-.33,1.132,1.132,0,0,0-.393.071s-2.915-2.76-2.968-2.787l.024-.056c.166-.31-.088-.649-.249-.625a1.027,1.027,0,0,0-.84-1.431c.03.2.046.6.046.6s-.8-.432-1.2-.059c-.353.417.137,1.175.137,1.175s-.409.01-.611-.007a1.052,1.052,0,0,0,1.505.734c-.014.159.345.387.65.2l.134-.065c.024.032,2.863,2.714,2.863,2.714a.933.933,0,0,0-.15.684,1.027,1.027,0,0,0,.818.809,1.133,1.133,0,0,0,.8-.129l.752.7a.347.347,0,0,0,.258.091.317.317,0,0,0,.307-.332.3.3,0,0,0-.1-.194C8.749,24.512,8,23.812,8,23.812a5.354,5.354,0,0,1,2.741-.743.2.2,0,0,0,.19-.283c-.435-1.047.5-1.806,1.469-1.188a3.243,3.243,0,0,1,1.175,1.685c-1.589.385-3.584,1.445-3.988,2.6-.155.447.358,1.056.981,1.178a.042.042,0,0,0,.051-.033,4.732,4.732,0,0,1,3.15-3.233l.081.218a4.394,4.394,0,0,0-2.365,2.8c-.134.572.5,1.087,1.03,1.228A.042.042,0,0,0,12.565,28a5.744,5.744,0,0,1,1.422-3.529q.026.179.039.359a11.412,11.412,0,0,0-.639,3.082c0,.6.9,1.027,1.032,1.086.166-.059,1.064-.481,1.064-1.086a11.412,11.412,0,0,0-.639-3.082q.013-.18.039-.359A5.743,5.743,0,0,1,16.3,28a.043.043,0,0,0,.054.037c.527-.141,1.164-.656,1.031-1.228a4.4,4.4,0,0,0-2.365-2.8L15.1,23.8a4.731,4.731,0,0,1,3.15,3.233.043.043,0,0,0,.051.033c.623-.123,1.137-.732.981-1.178-.4-1.157-2.4-2.217-3.987-2.6A3.246,3.246,0,0,1,16.471,21.6c.968-.618,1.9.141,1.469,1.188a.2.2,0,0,0,.19.283,4.87,4.87,0,0,1,2.957.92,1.784,1.784,0,0,0,1.671.764,1.7,1.7,0,0,0,1.547-1.427,1.588,1.588,0,0,0-.8-1.559l-.939.738Zm-6.915-4.757c.334-.124.858-.024.841.459,0,.109.149.109.16,0,.1-.723-.388-.931-.9-.846-.063-.248-.115-.466-.175-.681-.047-.174-.064-.5.137-.5.109,0,.065.3.055.435-.009.115.032.185.126.188.058,0,.131-.072.174-.121a.742.742,0,0,0,.018-1.09,1.077,1.077,0,0,0-1.2.242,1.349,1.349,0,0,0-.241-.375c-.066-.078-.084-.131.008-.2a.456.456,0,0,0,.174-.3.236.236,0,0,0-.257-.226.322.322,0,0,0-.326.345.344.344,0,0,0,.047.171,1.741,1.741,0,0,0-.5.024l1.883,5.166a1.441,1.441,0,0,0,.934-1.139c0-.385-.567-.257-.843.043-.089-.488-.167-.939-.254-1.389-.024-.124.039-.168.139-.206Zm-2.662-3.509.4,1.1c-.339.08-.883.327-.883.654,0,.435.77.719,1.216.685a.3.3,0,0,0,.073.269.994.994,0,0,0-.567.183.692.692,0,0,0-.781-.166c-.177.135-.182.363,0,.622a.438.438,0,0,1,.032.563c.537,0,.339-.7.549-.7a.883.883,0,0,0,.051.466.312.312,0,0,1-.029.309,2.841,2.841,0,0,0-.406,1.488c-.176,0-.266-.044-.2-.284.023-.09-.032-.153-.105-.043a.924.924,0,0,0-.12.418c0,.512.61.615.843.507a2.523,2.523,0,0,0,2.44.259l-2.33-6.392a.094.094,0,1,0-.177.062ZM12.911,19.5c-.048-.263.318-.734.784-1.187a1.121,1.121,0,0,0,.157.981,1.851,1.851,0,0,0-.941.206Z" fill-rule="evenodd"></path>
		</g>
	</g>
</svg>