<svg version="1.1" xmlns="http://www.w3.org/2000/svg" xmlns:xlink="http://www.w3.org/1999/xlink" ><symbol id="search2" viewBox="0 0 14.052 14.555" ><path id="search" d="M14.822,13.257l-3.464-3.6a5.874,5.874,0,1,0-4.5,2.1,5.814,5.814,0,0,0,3.367-1.063l3.49,3.63a.766.766,0,1,0,1.1-1.063ZM6.86,1.533A4.343,4.343,0,1,1,2.517,5.876,4.348,4.348,0,0,1,6.86,1.533Z" transform="translate(-0.984)" /></symbol><view id="search2-view" viewBox="0 0 14.052 14.555" /><use xlink:href="#search2" x="0" y="0" width="14.052" height="14.555" /><symbol id="lock" viewBox="0 0 24 24" ><g fill="none" ><path d="M0 0h24v24H0V0z" /><path d="M0 0h24v24H0V0z" opacity=".87" /></g><path d="M18 8h-1V6c0-2.76-2.24-5-5-5S7 3.24 7 6v2H6c-1.1 0-2 .9-2 2v10c0 1.1.9 2 2 2h12c1.1 0 2-.9 2-2V10c0-1.1-.9-2-2-2zM9 6c0-1.66 1.34-3 3-3s3 1.34 3 3v2H9V6zm9 14H6V10h12v10zm-6-3c1.1 0 2-.9 2-2s-.9-2-2-2-2 .9-2 2 .9 2 2 2z" /></symbol><view id="lock-view" viewBox="15 15 24 24" /><use xlink:href="#lock" x="15" y="15" width="24" height="24" /><symbol id="calendar" viewBox="0 0 21.646 19.289" ><g transform="translate(0 -20.9)" ><g transform="translate(0 20.9)" ><g><path d="M19.4,22.541H18.043V21.464a.564.564,0,0,0-1.128,0v1.077H11.39V21.464a.564.564,0,0,0-1.128,0v1.077H4.68V21.464a.564.564,0,0,0-1.128,0v1.077H2.25A2.281,2.281,0,0,0,0,24.824V37.934a2.25,2.25,0,0,0,2.25,2.255H19.4a2.249,2.249,0,0,0,2.25-2.25V24.824A2.273,2.273,0,0,0,19.4,22.541Zm1.122,15.393a1.125,1.125,0,0,1-1.116,1.128H2.25a1.121,1.121,0,0,1-1.122-1.122V24.824A1.147,1.147,0,0,1,2.25,23.668h1.3v.818a.564.564,0,1,0,1.128,0v-.818h5.582v.818a.564.564,0,1,0,1.128,0v-.818h5.526v.818a.564.564,0,1,0,1.128,0v-.818H19.4a1.147,1.147,0,0,1,1.122,1.156Z" transform="translate(0 -20.9)" /></g></g><g transform="translate(7.792 27.333)" ><g transform="translate(0 0)" ><path d="M139.751,135h-.987a.564.564,0,1,0,0,1.128h.987a.564.564,0,0,0,0-1.128Z" transform="translate(-138.2 -135)" /></g></g><g transform="translate(11.717 27.333)" ><g transform="translate(0 0)" ><path d="M209.351,135h-.987a.564.564,0,1,0,0,1.128h.987a.564.564,0,0,0,0-1.128Z" transform="translate(-207.8 -135)" /></g></g><g transform="translate(15.675 27.333)" ><g transform="translate(0 0)" ><path d="M279.551,135h-.987a.564.564,0,1,0,0,1.128h.987a.564.564,0,0,0,0-1.128Z" transform="translate(-278 -135)" /></g></g><g transform="translate(7.792 31.224)" ><g transform="translate(0 0)" ><path d="M139.751,204h-.987a.564.564,0,1,0,0,1.128h.987a.564.564,0,0,0,0-1.128Z" transform="translate(-138.2 -204)" /></g></g><g transform="translate(3.834 31.224)" ><g transform="translate(0 0)" ><path d="M69.556,204h-.992a.564.564,0,1,0,0,1.128h.987A.564.564,0,0,0,69.556,204Z" transform="translate(-68 -204)" /></g></g><g transform="translate(11.717 31.224)" ><g transform="translate(0 0)" ><path d="M209.351,204h-.987a.564.564,0,1,0,0,1.128h.987a.564.564,0,0,0,0-1.128Z" transform="translate(-207.8 -204)" /></g></g><g transform="translate(15.675 31.224)" ><g transform="translate(0 0)" ><path d="M279.551,204h-.987a.564.564,0,1,0,0,1.128h.987a.564.564,0,0,0,0-1.128Z" transform="translate(-278 -204)" /></g></g><g transform="translate(7.792 35.058)" ><g transform="translate(0 0)" ><path d="M139.751,272h-.987a.564.564,0,1,0,0,1.128h.987a.564.564,0,0,0,0-1.128Z" transform="translate(-138.2 -272)" /></g></g><g transform="translate(3.834 35.058)" ><g transform="translate(0 0)" ><path d="M69.556,272h-.992a.564.564,0,1,0,0,1.128h.987A.564.564,0,0,0,69.556,272Z" transform="translate(-68 -272)" /></g></g><g transform="translate(11.717 35.058)" ><g transform="translate(0 0)" ><path d="M209.351,272h-.987a.564.564,0,1,0,0,1.128h.987a.564.564,0,0,0,0-1.128Z" transform="translate(-207.8 -272)" /></g></g></g></symbol><view id="calendar-view" viewBox="39 39 21.646 19.289" /><use xlink:href="#calendar" x="39" y="39" width="21.646" height="19.289" /><symbol id="file" viewBox="0 0 34.216 42.77" ><g transform="translate(-358 -699)" ><g transform="translate(358 699)" ><path d="M5.032,0H22.72l11.5,10.958v26.78a5.032,5.032,0,0,1-5.032,5.032H5.032A5.032,5.032,0,0,1,0,37.738V5.032A5.032,5.032,0,0,1,5.032,0Z" fill="#f5f5f7" /><path d="M0,0H3.543l9.539,9.812v3.271H0Z" transform="translate(21.133)" fill="#d9d9db" opacity="0.999" /><path d="M1.006,0H13.083a1.006,1.006,0,1,1,0,2.013H1.006A1.006,1.006,0,0,1,1.006,0Z" transform="translate(9.56 21.637)" fill="#3b4357" /><path d="M1.006,0H8.554a1.006,1.006,0,0,1,0,2.013H1.006A1.006,1.006,0,0,1,1.006,0Z" transform="translate(9.56 30.191)" fill="#3b4357" /></g></g></symbol><view id="file-view" viewBox="61 59 34.216 42.77" /><use xlink:href="#file" x="61" y="59" width="34.216" height="42.77" /><symbol id="arrow_drop_down" viewBox="0 0 24 24" ><path d="M0 0h24v24H0V0z" fill="none" /><path d="M7 10l5 5 5-5H7z" /></symbol><view id="arrow_drop_down-view" viewBox="96 102 24 24" /><use xlink:href="#arrow_drop_down" x="96" y="102" width="24" height="24" /><symbol id="chevron_right" viewBox="0 0 24 24" ><path d="M0 0h24v24H0V0z" fill="none" /><path d="M10 6L8.59 7.41 13.17 12l-4.58 4.59L10 18l6-6-6-6z" /></symbol><view id="chevron_right-view" viewBox="120 126 24 24" /><use xlink:href="#chevron_right" x="120" y="126" width="24" height="24" /><symbol id="office-briefcase-64px" viewBox="0 0 64 64" ><path d="M56.012 11.718a15.83 15.83 0 0 1 5.434 9.49v.024c.029.267.552 5.115.552 10.734 0 5.656-.517 10.422-.551 10.73v.032a15.488 15.488 0 0 1-5.456 9.5c-.057.042-4.045 2.945-8.986 5.849a108.357 108.357 0 0 1-9.487 4.874l-.1.047A13.549 13.549 0 0 1 32 64a13.969 13.969 0 0 1-5.434-1.008l-.051-.022A98.037 98.037 0 0 1 17 58.083a122.369 122.369 0 0 1-8.963-5.832l-.049-.037a15.83 15.83 0 0 1-5.434-9.49V42.7C2.522 42.433 2 37.585 2 31.966c0-5.656.517-10.422.551-10.73v-.032a15.5 15.5 0 0 1 5.439-9.488l.045-.033c.321-.228 4.2-2.966 8.965-5.766a108.357 108.357 0 0 1 9.487-4.874l.1-.047A13.549 13.549 0 0 1 32 0a13.97 13.97 0 0 1 5.434 1.008l.051.022A98.031 98.031 0 0 1 47 5.917a110.508 110.508 0 0 1 8.963 5.764Z" fill="#fdecef" /><path d="M43.793 23.801h-5.892v-1.054a2.257 2.257 0 0 0-2.255-2.255h-7.292a2.257 2.257 0 0 0-2.255 2.255v1.054h-5.892a2.184 2.184 0 0 0-2.182 2.182v15.341a2.184 2.184 0 0 0 2.182 2.182h23.586a2.184 2.184 0 0 0 2.182-2.182V25.983a2.184 2.184 0 0 0-2.182-2.182Zm-15.789-1.054a.35.35 0 0 1 .35-.35h7.293a.35.35 0 0 1 .35.35v1.054h-7.993Zm-7.8 2.96h23.589a.277.277 0 0 1 .276.276v5a37.251 37.251 0 0 1-12.077 1.741 37.307 37.307 0 0 1-12.062-1.736v-5.005a.277.277 0 0 1 .277-.276Zm23.586 15.9H20.207a.277.277 0 0 1-.276-.276v-8.32a37.866 37.866 0 0 0 10.127 1.588V35.052a1.43 1.43 0 0 0 1.429 1.428h1.031a1.43 1.43 0 0 0 1.429-1.428V34.591a37.8 37.8 0 0 0 10.127-1.593v8.326a.277.277 0 0 1-.281.279Z" fill="#ef3f58" /></symbol><view id="office-briefcase-64px-view" viewBox="144 150 64 64" /><use xlink:href="#office-briefcase-64px" x="144" y="150" width="64" height="64" /><symbol id="account" viewBox="0 0 24 24" ><path d="M0 0h24v24H0V0z" fill="none" /><path d="M12 2C6.48 2 2 6.48 2 12s4.48 10 10 10 10-4.48 10-10S17.52 2 12 2zM7.07 18.28c.43-.9 3.05-1.78 4.93-1.78s4.51.88 4.93 1.78C15.57 19.36 13.86 20 12 20s-3.57-.64-4.93-1.72zm11.29-1.45c-1.43-1.74-4.9-2.33-6.36-2.33s-4.93.59-6.36 2.33C4.62 15.49 4 13.82 4 12c0-4.41 3.59-8 8-8s8 3.59 8 8c0 1.82-.62 3.49-1.64 4.83zM12 6c-1.94 0-3.5 1.56-3.5 3.5S10.06 13 12 13s3.5-1.56 3.5-3.5S13.94 6 12 6zm0 5c-.83 0-1.5-.67-1.5-1.5S11.17 8 12 8s1.5.67 1.5 1.5S12.83 11 12 11z" /></symbol><view id="account-view" viewBox="208 214 24 24" /><use xlink:href="#account" x="208" y="214" width="24" height="24" /><symbol id="chevron_left" viewBox="0 0 24 24" ><path d="M0 0h24v24H0V0z" fill="none" /><path d="M15.41 7.41L14 6l-6 6 6 6 1.41-1.41L10.83 12l4.58-4.59z" /></symbol><view id="chevron_left-view" viewBox="232 238 24 24" /><use xlink:href="#chevron_left" x="232" y="238" width="24" height="24" /><symbol id="eye" viewBox="0 0 24 24" ><path d="M0 0h24v24H0V0z" fill="none" /><path d="M12 6c3.79 0 7.17 2.13 8.82 5.5C19.17 14.87 15.79 17 12 17s-7.17-2.13-8.82-5.5C4.83 8.13 8.21 6 12 6m0-2C7 4 2.73 7.11 1 11.5 2.73 15.89 7 19 12 19s9.27-3.11 11-7.5C21.27 7.11 17 4 12 4zm0 5c1.38 0 2.5 1.12 2.5 2.5S13.38 14 12 14s-2.5-1.12-2.5-2.5S10.62 9 12 9m0-2c-2.48 0-4.5 2.02-4.5 4.5S9.52 16 12 16s4.5-2.02 4.5-4.5S14.48 7 12 7z" /></symbol><view id="eye-view" viewBox="256 262 24 24" /><use xlink:href="#eye" x="256" y="262" width="24" height="24" /><symbol id="email-64px" viewBox="0 0 64 64" ><path d="M56.012 11.718a15.83 15.83 0 0 1 5.434 9.49v.024c.029.267.552 5.115.552 10.734 0 5.656-.517 10.422-.551 10.73v.032a15.488 15.488 0 0 1-5.456 9.5c-.057.042-4.045 2.945-8.986 5.849a108.357 108.357 0 0 1-9.487 4.874l-.1.047A13.549 13.549 0 0 1 32 64a13.969 13.969 0 0 1-5.434-1.008l-.051-.022A98.037 98.037 0 0 1 17 58.083a122.369 122.369 0 0 1-8.963-5.832l-.049-.037a15.83 15.83 0 0 1-5.434-9.49V42.7C2.522 42.433 2 37.585 2 31.966c0-5.656.517-10.422.551-10.73v-.032a15.5 15.5 0 0 1 5.439-9.488l.045-.033c.321-.228 4.2-2.966 8.965-5.766a108.357 108.357 0 0 1 9.487-4.874l.1-.047A13.549 13.549 0 0 1 32 0a13.97 13.97 0 0 1 5.434 1.008l.051.022A98.031 98.031 0 0 1 47 5.917a110.508 110.508 0 0 1 8.963 5.764Z" fill="#eaf4fd" /><path d="M42.107 22.093H21.894a3.423 3.423 0 0 0-3.419 3.419v12.977a3.423 3.423 0 0 0 3.419 3.419h20.213a3.423 3.423 0 0 0 3.419-3.419V25.512a3.423 3.423 0 0 0-3.419-3.419Zm-.532 2.205L32 31.693l-9.572-7.395Zm.534 15.4H21.894a1.215 1.215 0 0 1-1.213-1.213v-12.75l10.646 8.224a1.1 1.1 0 0 0 1.348 0l10.646-8.224v12.754a1.215 1.215 0 0 1-1.214 1.213Z" fill="#1b8aef" /></symbol><view id="email-64px-view" viewBox="280 286 64 64" /><use xlink:href="#email-64px" x="280" y="286" width="64" height="64" /><symbol id="close" viewBox="0 0 24 24" ><path d="M0 0h24v24H0V0z" fill="none" /><path d="M19 6.41L17.59 5 12 10.59 6.41 5 5 6.41 10.59 12 5 17.59 6.41 19 12 13.41 17.59 19 19 17.59 13.41 12 19 6.41z" /></symbol><view id="close-view" viewBox="344 350 24 24" /><use xlink:href="#close" x="344" y="350" width="24" height="24" /><symbol id="search" viewBox="0 0 24 24" ><path d="M0 0h24v24H0V0z" fill="none" /><path d="M15.5 14h-.79l-.28-.27C15.41 12.59 16 11.11 16 9.5 16 5.91 13.09 3 9.5 3S3 5.91 3 9.5 5.91 16 9.5 16c1.61 0 3.09-.59 4.23-1.57l.27.28v.79l5 4.99L20.49 19l-4.99-5zm-6 0C7.01 14 5 11.99 5 9.5S7.01 5 9.5 5 14 7.01 14 9.5 11.99 14 9.5 14z" /></symbol><view id="search-view" viewBox="368 374 24 24" /><use xlink:href="#search" x="368" y="374" width="24" height="24" /></svg>