<svg xmlns="http://www.w3.org/2000/svg" width="52" height="52"><path d="M35.606 17.462a2.918 2.918 0 0 0-2.653-.487 4 4 0 0 1 1.765-1.031 1.95 1.95 0 0 1 .888 1.518Zm2.6-2.938c-.535-2.847-7.181-.961-10.528-2.17-.064.83 1.03 2.16 2.077 2.652-1.79 1.546-3.4 4.661-3.721 8.467-.323-3.806-1.93-6.921-3.72-8.467 1.047-.492 2.142-1.822 2.077-2.652-3.347 1.209-9.994-.677-10.529 2.17a2.355 2.355 0 0 0 .493 1.785 1.486 1.486 0 0 1 1.277-.956c4.683-.7 8.592 6.48 5.063 9.384a.07.07 0 0 0 .049.126h10.58a.071.071 0 0 0 .05-.126c-3.53-2.9.38-10.088 5.062-9.384a1.485 1.485 0 0 1 1.277.955 2.351 2.351 0 0 0 .492-1.785Zm1.135-6.534C39.257 7.721 42 7.714 42 9.425c0 1.146-1.642 1.689-1.642 2.879a1.1 1.1 0 0 0 .783.961c-.423-1.91 1.326-.911 1.8-.553-.939-2.569 1.174-2.552.966-3.73-.145-.823-1.981-.574-2.646-.991-1.179-.739-2.575-3.615-3.494-.739a2.174 2.174 0 0 1-1.459 3.916 2.339 2.339 0 0 0 .008.369c2.6-.126 3.5-2.025 3.026-3.546ZM9.058 12.711c.472-.357 2.221-1.357 1.8.553a1.1 1.1 0 0 0 .782-.961c0-1.19-1.642-1.733-1.642-2.879 0-1.711 2.746-1.7 2.662-1.435-.474 1.521.431 3.42 3.026 3.546a2.445 2.445 0 0 0 .007-.369 2.174 2.174 0 0 1-1.459-3.916c-.92-2.876-2.315 0-3.494.739-.665.417-2.5.168-2.646.991-.207 1.178 1.9 1.162.966 3.73Zm7.37 4.75a2.919 2.919 0 0 1 2.653-.487 3.989 3.989 0 0 0-1.764-1.031 1.95 1.95 0 0 0-.889 1.518ZM27.266 1.537 26 0l-1.267 1.537L26 3.154l1.266-1.617Zm7.228 4.647-.9-1.092-.9 1.092.9 1.067.9-1.068Zm7.3 31.568-1.141-1.2-1.141 1.2 1.141 1.055 1.147-1.056ZM19.306 6.183l-.9-1.092-.9 1.092.9 1.068.9-1.068Zm-2.579 5.353h3.358a4.271 4.271 0 0 0 4.478-3.221h2.873a4.271 4.271 0 0 0 4.478 3.221h3.358a7.576 7.576 0 0 0 .735-1.186c.531-1.414-.147-2.073-1.136-2.073L33.593 9.43l-1.278-1.153c-.989 0-1.667.659-1.136 2.073a4.131 4.131 0 0 0 .383.68 3.488 3.488 0 0 1-3.046-2.715 19.237 19.237 0 0 0 1.1-1.956c.794-2.026-.22-2.855-1.7-2.855L26 5.745 24.085 3.5c-1.483 0-2.5.828-1.7 2.855a19.07 19.07 0 0 0 1.1 1.956 3.49 3.49 0 0 1-3.047 2.715 4.065 4.065 0 0 0 .383-.68c.529-1.414-.146-2.073-1.136-2.073L18.406 9.43l-1.278-1.153c-.99 0-1.666.659-1.136 2.073a7.558 7.558 0 0 0 .736 1.186ZM51.448 21.9a16.835 16.835 0 0 1-9.323 1.444q.076-.347.128-.7c3.242-.386 5.878-.933 7.557-1.863A4.255 4.255 0 0 0 51.6 15.3a.081.081 0 0 0-.129-.016 17.757 17.757 0 0 1-9.105 5.333q-.02-.406-.075-.809c2.548-1.438 5.035-3.1 6.22-4.611 1.791-2.291 1.626-5.213-.078-6.7a.081.081 0 0 0-.121.017c-.539.885-5.585 9-11.124 12.507q-.1.065-.2.126a.26.26 0 0 0-.041.423 3.047 3.047 0 0 1 1.036 2.268 3.248 3.248 0 0 1-2.783 3.114 6.5 6.5 0 0 1-3.084-.257.075.075 0 0 0-.1.067v4.9a.078.078 0 0 0 .149.023 3.841 3.841 0 0 1 3.6-2.17 9.348 9.348 0 0 0 1.633 4.35 2.8 2.8 0 0 0 4.036.408.069.069 0 0 0-.019-.107c-.5-.288-3.378-2.045-3.954-4.925a5.68 5.68 0 0 0 .661-.271 9.385 9.385 0 0 0 3.367 3.411c1.827.872 3.5.448 4.241-.829a.072.072 0 0 0-.061-.106c-1.13-.09-4.6-1.079-6.075-3.49.169-.155.335-.316.489-.487a12.954 12.954 0 0 0 5.295 2.417c1.83.248 3.9-.333 3.955-2.452a.076.076 0 0 0-.082-.075c-.651.039-4.959.226-8.029-1.528q.16-.3.3-.616s4.638 1.091 6.836.73a3.538 3.538 0 0 0 3.216-4 .079.079 0 0 0-.113-.056ZM10.49 25.22q.138.313.3.616C7.721 27.59 3.414 27.4 2.761 27.365a.077.077 0 0 0-.083.075c.051 2.118 2.124 2.7 3.955 2.451a12.958 12.958 0 0 0 5.295-2.417c.155.171.32.333.489.487-1.478 2.411-4.945 3.4-6.075 3.49a.072.072 0 0 0-.061.106c.742 1.277 2.415 1.7 4.242.829a9.391 9.391 0 0 0 3.366-3.411 5.831 5.831 0 0 0 .661.271c-.575 2.88-3.451 4.637-3.954 4.925a.07.07 0 0 0-.019.107 2.8 2.8 0 0 0 4.037-.408 9.347 9.347 0 0 0 1.632-4.35 3.841 3.841 0 0 1 3.6 2.17.078.078 0 0 0 .15-.023v-4.9a.076.076 0 0 0-.1-.067 6.492 6.492 0 0 1-3.083.257 3.248 3.248 0 0 1-2.784-3.114 3.051 3.051 0 0 1 1.036-2.269.259.259 0 0 0-.04-.423l-.206-.126C9.277 17.52 4.234 9.408 3.691 8.517a.083.083 0 0 0-.124-.017c-1.7 1.491-1.867 4.412-.076 6.7 1.185 1.515 3.672 3.173 6.219 4.611q-.054.4-.074.809a17.766 17.766 0 0 1-9.1-5.331.081.081 0 0 0-.136.011 4.257 4.257 0 0 0 1.785 5.476c1.68.93 4.315 1.477 7.557 1.863q.053.351.128.7A16.837 16.837 0 0 1 .552 21.9a.078.078 0 0 0-.114.057 3.537 3.537 0 0 0 3.217 3.993c2.2.362 6.835-.73 6.835-.73Zm30.166 15.134-1.69-1.324a2.938 2.938 0 0 0-1.366 1.779c-1.017.142-3.788-.471-3.519-.877 3.038-4.253.714-6.785-2.078-6.644v2.856a1.732 1.732 0 0 1-1.792 1.656h-1.928A3.116 3.116 0 0 0 26 39.189a3.115 3.115 0 0 0-2.284-1.389h-1.928a1.731 1.731 0 0 1-1.794-1.661v-2.851c-2.792-.141-5.118 2.391-2.079 6.644.267.4-2.582 1.046-3.918.883a1.981 1.981 0 0 0-1.428-.592 2.048 2.048 0 0 0-.708.126s-5.251-4.949-5.347-5l.043-.1c.3-.557-.159-1.163-.448-1.121a1.841 1.841 0 0 0-1.513-2.565c.055.353.082 1.074.082 1.074s-1.439-.775-2.162-.106c-.635.749.246 2.106.246 2.106s-.737.018-1.1-.013a1.9 1.9 0 0 0 2.712 1.315c-.025.286.622.693 1.171.366l.241-.116c.043.057 5.157 4.866 5.157 4.866a1.666 1.666 0 0 0-.27 1.227 1.846 1.846 0 0 0 1.474 1.45 2.049 2.049 0 0 0 1.443-.232l1.354 1.251a.627.627 0 0 0 .465.164.57.57 0 0 0 .554-.6.528.528 0 0 0-.179-.347C15.76 43.952 14.4 42.7 14.4 42.7a9.679 9.679 0 0 1 4.937-1.332.35.35 0 0 0 .342-.508c-.784-1.878.9-3.238 2.647-2.131a5.816 5.816 0 0 1 2.117 3.021c-2.863.69-6.457 2.591-7.184 4.665-.28.8.645 1.893 1.768 2.113a.076.076 0 0 0 .091-.059c.587-3.1 3.933-5.405 5.674-5.8l.146.39a7.889 7.889 0 0 0-4.261 5.014c-.241 1.025.907 1.949 1.856 2.2a.076.076 0 0 0 .1-.066 10.276 10.276 0 0 1 2.561-6.329q.046.321.069.644a20.383 20.383 0 0 0-1.152 5.526c0 1.084 1.619 1.841 1.858 1.947.3-.106 1.917-.863 1.917-1.947a20.382 20.382 0 0 0-1.152-5.526q.024-.323.07-.644a10.273 10.273 0 0 1 2.56 6.328.077.077 0 0 0 .1.067c.949-.253 2.1-1.177 1.857-2.2a7.891 7.891 0 0 0-4.261-5.014l.146-.39c1.742.392 5.087 2.7 5.674 5.8a.077.077 0 0 0 .091.059c1.122-.22 2.049-1.312 1.767-2.113-.725-2.075-4.32-3.975-7.183-4.665a5.821 5.821 0 0 1 2.117-3.021c1.744-1.107 3.43.253 2.646 2.131a.35.35 0 0 0 .342.507c1.959 0 4.371.7 5.326 1.649A3.219 3.219 0 0 0 41 44.384a3.055 3.055 0 0 0 2.787-2.558 2.844 2.844 0 0 0-1.436-2.8L40.66 40.35ZM28.2 31.824c.6-.222 1.546-.042 1.514.823-.008.2.269.2.289 0 .18-1.3-.7-1.669-1.62-1.517-.114-.446-.208-.835-.315-1.221-.085-.312-.116-.9.247-.9.2 0 .117.546.1.781-.017.206.058.331.226.337.1 0 .236-.129.314-.217a1.326 1.326 0 0 0 .032-1.954 1.947 1.947 0 0 0-2.165.434 2.418 2.418 0 0 0-.433-.672c-.119-.14-.151-.236.015-.359a.817.817 0 0 0 .314-.534.425.425 0 0 0-.464-.406.579.579 0 0 0-.588.619.616.616 0 0 0 .085.306 3.151 3.151 0 0 0-.9.043l3.391 9.264a2.586 2.586 0 0 0 1.682-2.042c0-.691-1.022-.462-1.518.077-.159-.876-.3-1.684-.457-2.491-.042-.222.071-.3.25-.369Zm-4.8-6.293.712 1.97c-.61.144-1.591.587-1.591 1.173 0 .781 1.387 1.289 2.19 1.228a.527.527 0 0 0 .131.482 1.8 1.8 0 0 0-1.021.328 1.251 1.251 0 0 0-1.408-.3c-.318.242-.327.652 0 1.115a.782.782 0 0 1 .058 1.009c.967 0 .611-1.252.99-1.252a1.576 1.576 0 0 0 .091.835.558.558 0 0 1-.052.553 5.078 5.078 0 0 0-.731 2.668c-.317 0-.478-.079-.367-.51.042-.161-.058-.275-.19-.077a1.65 1.65 0 0 0-.216.75c0 .918 1.1 1.1 1.518.909 1.213 1.169 3.6.857 4.395.465l-4.2-11.461a.169.169 0 1 0-.318.112Zm-.146 9.441c-.087-.472.573-1.315 1.412-2.129a2 2 0 0 0 .282 1.759 3.347 3.347 0 0 0-1.694.37Z" fill="#fff" fill-rule="evenodd"/></svg>